<svg xmlns="http://www.w3.org/2000/svg" style="display: none;"><symbol id="arrows-7" viewBox="0 0 301.213 301.213"><title>arrows-7</title><path d="M78.979,301.213c-13.67,0-27.5-10.752-27.5-31.305V31.312C51.479,10.759,65.309,0,78.979,0 c5.09,0,12.924,1.472,21.318,8.496l135.818,113.639c8.663,7.237,13.618,17.603,13.618,28.452s-4.955,21.215-13.618,28.458 L100.297,292.697C91.891,299.741,84.069,301.213,78.979,301.213z M78.979,12.854c-7.294,0-14.647,5.707-14.647,18.458v238.596 c0,12.744,7.359,18.451,14.647,18.451c2.956,0,7.629-0.958,13.072-5.514L227.87,169.18c5.739-4.794,9.01-11.568,9.01-18.599 c0-7.025-3.278-13.798-9.01-18.593L92.052,18.361C86.608,13.811,81.942,12.854,78.979,12.854z"/></symbol><symbol id="arrows-6" viewBox="0 0 284.815 284.815"><title>arrows-6</title><path d="M255.9,228.08c-7.725,0-14.987-3.014-20.45-8.471l-93.048-93.054l-93.041,93.048c-5.456,5.463-12.719,8.471-20.45,8.471 s-14.994-3.008-20.457-8.471c-11.273-11.273-11.273-29.621,0-40.894L121.952,65.205c5.456-5.463,12.719-8.471,20.444-8.471 c7.719,0,14.987,3.008,20.45,8.471l113.498,113.504c5.469,5.463,8.471,12.719,8.471,20.45c0,7.719-3.008,14.987-8.471,20.45 C270.888,225.066,263.626,228.08,255.9,228.08z M142.403,108.381l102.135,102.142c6.073,6.073,16.645,6.073,22.719,0 c3.04-3.04,4.704-7.076,4.704-11.363s-1.671-8.323-4.704-11.363L153.47,74.016c-6.073-5.797-16.453-5.701-22.423,0.276 L17.542,187.797c-6.266,6.266-6.266,16.459,0,22.719c6.073,6.073,16.658,6.073,22.725,0L142.403,108.381z"/></symbol><symbol id="arrows-5" viewBox="0 0 272.067 272.067"><title>arrows-5</title><path d="M225.302,77.289L156.49,8.471l-0.289-0.283c-1.253-1.215-2.635-2.333-4.107-3.31c-0.617-0.411-1.253-0.746-1.896-1.073 l-0.88-0.469c-0.713-0.405-1.433-0.797-2.249-1.138c-0.803-0.328-1.62-0.566-2.436-0.797l-0.951-0.283 c-0.668-0.225-1.33-0.424-1.999-0.553C139.787,0.186,137.878,0,135.976,0c-1.87,0.006-3.76,0.199-5.604,0.566 c-0.72,0.141-1.42,0.36-2.108,0.585l-0.816,0.244c-0.835,0.231-1.671,0.476-2.468,0.803c-0.79,0.328-1.536,0.733-2.275,1.15 l-0.906,0.482c-0.63,0.321-1.247,0.649-1.8,1.022c-1.234,0.823-2.436,1.767-3.605,2.847l-69.635,69.59 c-5.463,5.463-8.471,12.719-8.471,20.45s3.008,14.987,8.471,20.45c5.463,5.469,12.719,8.471,20.45,8.471s14.987-3.008,20.45-8.471 l19.454-19.454v144.411c0,15.951,12.976,28.921,28.921,28.921c15.951,0,28.921-12.969,28.921-28.921V98.742l19.454,19.441 c5.463,5.469,12.719,8.471,20.45,8.471c7.719,0,14.987-3.008,20.45-8.464c5.463-5.456,8.471-12.719,8.471-20.45 S230.759,82.758,225.302,77.289z M216.215,109.102c-3.04,3.04-7.07,4.704-11.363,4.704s-8.336-1.671-11.363-4.704l-41.395-41.389 v175.433c0,8.863-7.204,16.067-16.067,16.067s-16.067-7.204-16.067-16.067V67.7l-41.395,41.395c-3.04,3.04-7.07,4.704-11.363,4.704 s-8.323-1.671-11.363-4.704c-6.08-6.073-6.067-16.646,0-22.719l68.439-68.446l0.508-0.476c0.707-0.694,1.472-1.337,2.796-2.14 l1.472-0.791c0.27-0.148,0.527-0.321,0.835-0.443c0.308-0.122,0.63-0.199,0.945-0.283l2.044-0.623 c1.035-0.206,2.095-0.315,3.143-0.321c1.015,0,2.076,0.109,3.599,0.463l1.581,0.476c0.341,0.096,0.675,0.174,0.938,0.283 c0.289,0.122,0.553,0.283,0.829,0.437l1.986,1.048c0.868,0.585,1.684,1.247,2.449,2.005l68.812,68.819 C222.288,92.456,222.275,103.035,216.215,109.102z"/></symbol><symbol id="arrows-4" viewBox="0 0 272.067 272.067"><title>arrows-4</title><path d="M46.752,194.765l68.812,68.825l0.289,0.283c1.253,1.215,2.635,2.333,4.107,3.31c0.617,0.411,1.253,0.752,1.896,1.08 l0.88,0.463c0.713,0.405,1.433,0.803,2.249,1.144c0.803,0.328,1.62,0.566,2.436,0.791l0.951,0.289 c0.668,0.219,1.33,0.424,1.999,0.553c1.896,0.379,3.805,0.566,5.707,0.566c1.87-0.013,3.76-0.199,5.604-0.566 c0.72-0.148,1.42-0.366,2.108-0.591l0.816-0.238c0.842-0.238,1.677-0.476,2.474-0.81c0.79-0.328,1.536-0.733,2.275-1.15 l0.906-0.488c0.63-0.315,1.247-0.649,1.8-1.015c1.234-0.829,2.436-1.767,3.605-2.847l69.641-69.59 c5.463-5.463,8.471-12.719,8.471-20.45c0-7.719-3.008-14.987-8.471-20.45c-5.463-5.463-12.719-8.471-20.45-8.471 s-14.987,3.014-20.45,8.471l-19.454,19.454V28.921C164.954,12.969,151.979,0,136.034,0c-15.951,0-28.921,12.969-28.921,28.921 v144.392l-19.454-19.441c-5.463-5.463-12.719-8.471-20.45-8.471c-7.719,0-14.987,3.014-20.45,8.471 c-5.463,5.45-8.471,12.719-8.471,20.45C38.275,182.034,41.289,189.302,46.752,194.765z M55.84,162.952 c3.04-3.04,7.07-4.704,11.363-4.704s8.336,1.671,11.363,4.704l41.395,41.395V28.921c0-8.863,7.204-16.067,16.067-16.067 c8.863,0,16.067,7.204,16.067,16.067v175.433l41.395-41.395c3.04-3.04,7.07-4.704,11.363-4.704c4.293,0,8.323,1.671,11.363,4.704 c6.08,6.073,6.067,16.646,0,22.719l-68.452,68.446l-0.508,0.476c-0.707,0.688-1.472,1.33-2.796,2.147l-1.472,0.791 c-0.27,0.148-0.527,0.315-0.835,0.437c-0.308,0.122-0.63,0.199-0.945,0.289l-2.044,0.623c-1.035,0.206-2.095,0.321-3.143,0.321 c-1.015,0-2.076-0.116-3.599-0.463l-1.581-0.476c-0.341-0.09-0.675-0.167-0.938-0.276c-0.289-0.129-0.553-0.289-0.829-0.437 l-1.973-1.054c-0.868-0.585-1.684-1.24-2.449-2.005L55.84,185.678C49.766,179.598,49.779,169.019,55.84,162.952z"/></symbol><symbol id="multimedia-1" viewBox="0 0 332.589 332.589"><title>multimedia-1</title><path d="M294.034,45.785H38.561C17.295,45.785,0,63.079,0,84.346v7.082v149.732v7.082c0,21.266,17.295,38.561,38.561,38.561 h255.467c21.266,0,38.561-17.295,38.561-38.561v-7.082V91.415v-7.076C332.595,63.079,315.294,45.785,294.034,45.785z M294.034,58.638c1.767,0,3.49,0.18,5.161,0.527c0.54,0.109,1.028,0.334,1.555,0.476c1.105,0.302,2.224,0.578,3.265,1.015 c0.566,0.238,1.054,0.591,1.607,0.868c0.932,0.476,1.896,0.919,2.764,1.497c0.501,0.347,0.932,0.784,1.408,1.17 c0.816,0.636,1.658,1.234,2.397,1.973c0.424,0.418,0.752,0.932,1.144,1.388c0.688,0.784,1.407,1.542,1.999,2.41 c0.353,0.514,0.591,1.105,0.906,1.645c0.514,0.893,1.067,1.755,1.472,2.712c0.263,0.611,0.392,1.279,0.604,1.922 c0.328,0.951,0.688,1.889,0.906,2.886c0.148,0.713,0.148,1.478,0.238,2.217c0.116,0.958,0.276,1.896,0.289,2.886l-121.917,74.526 h-0.013l-31.53,19.287l-31.53-19.287h-0.006L12.867,84.224c0.006-0.938,0.18-1.838,0.276-2.757 c0.096-0.784,0.096-1.587,0.251-2.346c0.18-0.893,0.521-1.716,0.797-2.564c0.238-0.746,0.405-1.53,0.707-2.249 c0.341-0.803,0.823-1.517,1.234-2.275c0.386-0.688,0.694-1.427,1.138-2.076c0.482-0.707,1.086-1.324,1.639-1.979 c0.501-0.611,0.945-1.26,1.504-1.819c0.598-0.598,1.298-1.073,1.954-1.613c0.623-0.501,1.189-1.073,1.851-1.517 c0.707-0.482,1.504-0.823,2.269-1.228c0.694-0.379,1.356-0.823,2.095-1.138c0.945-0.405,1.973-0.643,2.969-0.925 c0.623-0.18,1.208-0.443,1.845-0.572c1.671-0.347,3.393-0.527,5.167-0.527C38.561,58.638,294.034,58.638,294.034,58.638z M12.854,99.288l109.584,67L12.854,233.294V99.288z M38.561,273.944c-1.767,0-3.496-0.18-5.167-0.521 c-0.784-0.161-1.504-0.469-2.269-0.701c-0.855-0.257-1.735-0.45-2.545-0.79c-0.977-0.411-1.864-0.977-2.783-1.504 c-0.514-0.302-1.08-0.527-1.575-0.861c-0.887-0.598-1.665-1.324-2.468-2.024c-0.437-0.379-0.932-0.694-1.337-1.105 c-0.726-0.72-1.324-1.555-1.96-2.359c-0.386-0.482-0.835-0.919-1.189-1.433c-0.521-0.765-0.9-1.626-1.337-2.442 c-0.341-0.649-0.752-1.24-1.041-1.922c-0.328-0.765-0.501-1.594-0.752-2.397c-0.257-0.803-0.578-1.581-0.752-2.416 c-0.154-0.765-0.161-1.581-0.251-2.365c-0.09-0.925-0.263-1.812-0.27-2.751l121.891-74.532l31.53,19.281l31.53-19.281 l121.911,74.532c-0.013,0.938-0.174,1.825-0.276,2.744c-0.09,0.784-0.103,1.6-0.251,2.365c-0.174,0.835-0.501,1.613-0.752,2.416 c-0.251,0.803-0.424,1.632-0.752,2.397c-0.289,0.675-0.701,1.273-1.041,1.922c-0.437,0.816-0.816,1.677-1.343,2.442 c-0.353,0.514-0.803,0.945-1.183,1.433c-0.643,0.803-1.228,1.639-1.96,2.359c-0.411,0.405-0.906,0.726-1.343,1.105 c-0.803,0.701-1.581,1.433-2.461,2.024c-0.501,0.334-1.067,0.559-1.581,0.861c-0.919,0.527-1.793,1.093-2.776,1.504 c-0.816,0.341-1.697,0.533-2.545,0.791c-0.765,0.231-1.478,0.54-2.275,0.701c-1.671,0.341-3.387,0.521-5.161,0.521H38.561V273.944z M319.741,233.294l-109.597-67.006l109.597-67.006V233.294z"/></symbol><symbol id="arrows-3" viewBox="0 0 304.741 304.741"><title>arrows-3</title><path d="M91.88,176.963h113.671c13.554,0,24.595-11.035,24.595-24.596s-11.041-24.602-24.595-24.602H91.88l13.599-13.599 c9.582-9.582,9.582-25.2,0-34.788c-9.287-9.28-25.495-9.28-34.782,0L15.092,134.97l-0.746,0.758l-0.045,0.077 c-0.81,0.906-1.575,1.877-2.275,2.924c-0.353,0.546-0.662,1.105-0.945,1.677l-0.379,0.701c-0.334,0.591-0.656,1.183-0.919,1.825 c-0.315,0.745-0.54,1.497-0.746,2.269l-0.219,0.726c-0.161,0.514-0.315,1.022-0.443,1.626c-0.643,3.207-0.636,6.453,0.006,9.685 c0.122,0.559,0.283,1.099,0.456,1.639l0.244,0.835c0.193,0.694,0.398,1.395,0.688,2.082c0.302,0.713,0.662,1.382,1.035,2.05 l0.328,0.585c0.27,0.546,0.559,1.08,0.893,1.575c0.913,1.375,1.967,2.654,3.111,3.792l55.56,55.56 c4.64,4.659,10.816,7.211,17.391,7.211c6.568,0,12.744-2.551,17.397-7.211c4.647-4.653,7.204-10.829,7.204-17.391 c0-6.568-2.558-12.744-7.204-17.391L91.88,176.963z M96.391,216.257c-4.441,4.434-12.185,4.434-16.607,0l-55.579-55.573 c-0.553-0.553-1.041-1.15-1.594-2.031l-0.623-1.163c-0.122-0.219-0.264-0.418-0.521-1.221l-0.495-1.594 c-0.302-1.523-0.302-3.085,0.064-4.743l0.392-1.305c0.064-0.257,0.116-0.508,0.469-1.208l0.829-1.568 c0.424-0.636,0.906-1.228,1.446-1.767l0.733-0.733l0.006-0.013l54.879-54.879c4.428-4.422,12.179-4.422,16.607,0 c4.576,4.582,4.576,12.031,0,16.613l-35.54,35.54h144.694c6.478,0,11.742,5.27,11.742,11.748c0,6.478-5.264,11.742-11.742,11.742 H60.844l35.547,35.547C100.967,204.232,100.967,211.674,96.391,216.257z M296.844,0v304.741H143.14 c-3.56,0-6.427-2.873-6.427-6.427s2.866-6.427,6.427-6.427h140.851V12.854H142.6c-3.56,0-6.427-2.873-6.427-6.427S139.04,0,142.6,0 H296.844z"/></symbol><symbol id="arrows-2" viewBox="0 0 304.741 304.741"><title>arrows-2</title><path d="M167.345,225.363l55.547-55.547c1.17-1.157,2.224-2.436,3.123-3.792c0.341-0.514,0.63-1.048,0.906-1.594l0.321-0.585 c0.379-0.668,0.733-1.337,1.054-2.082c0.27-0.662,0.482-1.356,0.668-2.05l0.251-0.835c0.174-0.54,0.334-1.08,0.463-1.69 c0.63-3.181,0.643-6.427-0.013-9.698c-0.116-0.54-0.264-1.048-0.424-1.562l-0.225-0.726c-0.193-0.771-0.431-1.523-0.733-2.275 c-0.264-0.636-0.598-1.228-0.925-1.819l-0.379-0.701c-0.289-0.578-0.604-1.144-0.964-1.703c-0.778-1.163-1.639-2.249-2.571-3.233 l-56.1-56.1c-9.293-9.28-25.495-9.274-34.782,0.006c-9.582,9.589-9.582,25.206,0,34.788l13.599,13.599H32.497 c-13.554,0-24.595,11.035-24.595,24.602c0,13.561,11.041,24.595,24.595,24.595h113.678l-13.606,13.606 c-4.647,4.647-7.204,10.823-7.204,17.391c0,6.562,2.558,12.738,7.204,17.391c4.653,4.653,10.836,7.204,17.397,7.204 C156.542,232.561,162.711,230.01,167.345,225.363z M141.651,199.662l35.547-35.547h-144.7c-6.478,0-11.742-5.264-11.742-11.742 c0-6.478,5.264-11.748,11.742-11.748v-0.013h144.7l-35.547-35.54c-4.576-4.582-4.576-12.031,0-16.613 c4.428-4.428,12.172-4.428,16.601-0.006l55.631,55.624c0.54,0.54,1.015,1.138,1.62,2.121l0.906,1.677 c0.109,0.244,0.154,0.495,0.373,1.247l0.289,0.913c0.315,1.549,0.315,3.111-0.071,4.839l-0.591,1.967 c-0.09,0.231-0.225,0.437-0.63,1.144l-0.45,0.9c-0.437,0.662-0.938,1.26-1.497,1.832l-55.566,55.566 c-4.415,4.422-12.16,4.428-16.601-0.006C137.075,211.687,137.075,204.245,141.651,199.662z M296.839,0v304.741h-0.006H143.135 c-3.56,0-6.427-2.873-6.427-6.427s2.866-6.427,6.427-6.427h140.851V12.854h-141.39c-3.56,0-6.427-2.873-6.427-6.427 c0-3.548,2.866-6.427,6.427-6.427H296.839z"/></symbol><symbol id="people" viewBox="0 0 128 128"><title>people</title><path d="M118.95,92.012c-3.778-3.777-10.1-7.074-20.066-12.059c-5.024-2.512-13.386-6.691-15.413-8.605 c8.489-10.434,13.416-22.219,13.416-32.535c0-7,0-15.711-3.918-23.48C89.437,8.336,81.544,0,64.002,0 C46.456,0,38.563,8.336,35.035,15.332c-3.923,7.77-3.923,16.48-3.923,23.48c0,10.32,4.923,22.102,13.417,32.535 c-2.032,1.918-10.393,6.098-15.417,8.605c-9.963,4.984-16.285,8.281-20.066,12.059c-8.369,8.375-9.002,22.426-9.045,25.16 c-0.043,2.852,1.059,5.609,3.067,7.648c2,2.031,4.743,3.18,7.595,3.18h106.669c2.86,0,5.596-1.148,7.6-3.18 c2.004-2.039,3.11-4.797,3.067-7.652C127.956,114.438,127.318,100.387,118.95,92.012z M119.235,119.203 c-0.508,0.512-1.184,0.797-1.903,0.797H10.663c-0.707,0-1.398-0.289-1.895-0.797c-0.496-0.504-0.777-1.199-0.77-1.91 c0.023-1.34,0.391-13.305,6.705-19.621c2.915-2.914,9.017-6.074,17.988-10.563c9.576-4.785,14.886-7.637,17.332-9.949l5.399-5.105 l-4.688-5.758c-7.384-9.07-11.623-19.09-11.623-27.484c0-6.473,0-13.805,3.063-19.875C45.842,11.68,53.179,8,64.002,8 c10.814,0,18.159,3.68,21.824,10.934c3.063,6.074,3.063,13.406,3.063,19.879c0,8.391-4.235,18.41-11.628,27.484l-4.688,5.762 l5.4,5.102c2.445,2.309,7.751,5.16,17.331,9.949c8.971,4.484,15.073,7.645,17.988,10.563c5.138,5.137,6.634,14.75,6.704,19.621 C120.009,118.004,119.731,118.699,119.235,119.203z"/></symbol><symbol id="phone-call" viewBox="0 0 29.735 29.735"><title>phone-call</title><g> <path d="M23.895,29.733c-1.237,0-2.731-0.31-4.373-0.929c-3.603-1.359-7.521-4.043-11.035-7.557 C4.973,17.733,2.289,13.814,0.93,10.21C-0.307,6.935-0.31,4.247,0.92,3.017c0.178-0.178,0.359-0.368,0.545-0.563 c1.123-1.18,2.422-2.521,4.073-2.448c1.16,0.048,2.283,0.768,3.435,2.198c3.396,4.225,1.865,5.731,0.093,7.477L8.752,9.991 c-0.29,0.29-0.839,1.632,4.26,6.73c1.666,1.665,3.084,2.883,4.217,3.62c0.715,0.464,1.991,1.164,2.514,0.641l0.315-0.318 c1.744-1.77,3.25-3.296,7.474,0.099c1.431,1.15,2.15,2.273,2.198,3.434c0.069,1.682-1.271,2.954-2.453,4.076 c-0.194,0.185-0.384,0.364-0.56,0.54C26.103,29.426,25.127,29.733,23.895,29.733z M5.419,1.002c-1.194,0-2.274,1.136-3.229,2.14 C1.997,3.344,1.81,3.541,1.627,3.724C0.711,4.639,0.805,7.047,1.865,9.858c1.31,3.473,3.913,7.267,7.329,10.683 s7.209,6.018,10.681,7.328c2.811,1.061,5.219,1.153,6.135,0.236c0.183-0.182,0.378-0.368,0.578-0.558 c1.028-0.977,2.193-2.083,2.143-3.311c-0.035-0.843-0.649-1.75-1.826-2.695c-3.52-2.828-4.503-1.828-6.135-0.176l-0.32,0.323 c-0.777,0.781-2.044,0.61-3.766-0.51c-1.19-0.774-2.664-2.037-4.379-3.751l0,0c-4.231-4.231-5.585-6.819-4.26-8.145l0.319-0.316 c1.658-1.632,2.658-2.617-0.171-6.137C7.247,1.654,6.34,1.04,5.497,1.004C5.471,1.003,5.444,1.002,5.419,1.002z"/> </g><g> <path d="M24.07,12.29c-0.063,0-0.126-0.012-0.188-0.037c-0.256-0.104-0.38-0.395-0.275-0.65c0.636-1.568,0.272-3.355-0.924-4.552 c-1.229-1.229-3.118-1.57-4.703-0.858c-0.249,0.113-0.548,0.003-0.661-0.249c-0.114-0.252-0.003-0.548,0.249-0.661 c1.961-0.888,4.3-0.461,5.822,1.062c1.481,1.481,1.93,3.692,1.143,5.634C24.455,12.171,24.267,12.29,24.07,12.29z"/> <path d="M28.534,14.102c-0.063,0-0.126-0.012-0.188-0.037c-0.257-0.104-0.38-0.395-0.275-0.65 c1.365-3.367,0.588-7.202-1.981-9.771c-2.638-2.638-6.695-3.378-10.095-1.841c-0.252,0.11-0.548,0.002-0.662-0.25 C15.22,1.3,15.331,1.004,15.583,0.89c3.777-1.706,8.283-0.885,11.214,2.046c2.854,2.854,3.718,7.114,2.2,10.854 C28.919,13.984,28.731,14.102,28.534,14.102z"/> </g></symbol><symbol id="commerce" viewBox="0 0 320.738 320.738"><title>commerce</title><path d="M264.831,225.617c0.219-0.411,0.456-0.803,0.585-1.266l16.17-59.602c23.619-16.234,39.152-43.42,39.152-74.185 c0-49.609-40.361-89.963-89.969-89.963c-49.005,0-88.909,39.403-89.873,88.183H55.701c-0.463,0-0.88,0.174-1.318,0.27 l-9.672-32.121c-0.109-0.353-0.341-0.611-0.495-0.925c-0.264-3.31-2.956-5.926-6.324-5.926c-0.006,0-0.019,0-0.026,0L6.401,50.216 C2.847,50.235-0.013,53.121,0,56.675c0.013,3.541,2.886,6.395,6.427,6.395c0.006,0,0.019,0,0.026,0l26.652-0.116l61.524,204.187 c-6.112,5.585-10.013,13.541-10.013,22.468c0,16.858,13.663,30.527,30.527,30.527c16.858,0,30.527-13.67,30.527-30.527 c0-4.396-0.964-8.548-2.635-12.327h88.819c-1.671,3.779-2.635,7.931-2.635,12.327c0,16.858,13.663,30.527,30.527,30.527 c16.858,0,30.527-13.67,30.527-30.527c0-16.858-13.67-30.527-30.527-30.527c-6.401,0-12.333,1.986-17.243,5.347H132.38 c-4.91-3.361-10.836-5.347-17.237-5.347c-3.181,0-6.189,0.617-9.075,1.517l-9.178-30.45l161.918-0.129 C261.649,230.039,263.982,228.169,264.831,225.617z M259.753,271.948c9.749,0,17.674,7.918,17.674,17.674 c0,9.743-7.924,17.674-17.674,17.674c-9.75,0-17.674-7.931-17.674-17.674C242.08,279.866,250.004,271.948,259.753,271.948z M115.15,271.948c9.75,0,17.674,7.918,17.674,17.674c0,9.743-7.924,17.674-17.674,17.674s-17.674-7.931-17.674-17.674 C97.476,279.866,105.4,271.948,115.15,271.948z M230.762,13.448c42.52,0,77.116,34.596,77.116,77.109 c0,42.526-34.596,77.128-77.116,77.128s-77.109-34.596-77.109-77.128C153.653,48.044,188.242,13.448,230.762,13.448z M93.028,217.32L58.176,101.631h83.375c5.489,44.397,43.355,78.909,89.211,78.909c12.468,0,24.351-2.558,35.161-7.166 l-11.883,43.818L93.028,217.32z M278.012,100.114h-94.487V81.007h94.487V100.114z"/></symbol><symbol id="arrows-1" viewBox="0 0 284.837 284.837"><title>arrows-1</title><path d="M85.666,284.837c-7.725,0-14.987-3.008-20.45-8.471c-5.463-5.463-8.471-12.719-8.471-20.45 c0-7.731,3.014-14.987,8.471-20.45l93.054-93.054L65.216,49.371c-5.463-5.456-8.471-12.719-8.471-20.45s3.008-14.987,8.471-20.457 C70.679,3.001,77.935,0,85.666,0s14.987,3.008,20.45,8.464l113.504,113.498c5.469,5.463,8.471,12.719,8.471,20.45 s-3.008,14.987-8.471,20.45L106.117,276.36C100.654,281.83,93.392,284.837,85.666,284.837z M85.666,12.86 c-4.293,0-8.323,1.671-11.363,4.698c-3.04,3.04-4.704,7.076-4.704,11.369s1.671,8.329,4.704,11.363l102.142,102.129 L74.304,244.554c-3.04,3.04-4.704,7.07-4.704,11.363c0,4.293,1.671,8.323,4.704,11.363c6.073,6.073,16.646,6.073,22.719,0 L210.81,153.499c2.847-2.995,4.422-6.915,4.422-11.08c0-4.293-1.671-8.323-4.704-11.356L97.023,17.558 C93.989,14.525,89.96,12.86,85.666,12.86z"/></symbol><symbol id="arrows" viewBox="0 0 284.844 284.844"><title>arrows</title><path d="M199.174,284.844c-7.725,0-14.987-3.008-20.45-8.471L65.232,162.882c-5.476-5.476-8.483-12.738-8.483-20.463 s3.008-14.987,8.471-20.45L178.724,8.471C184.187,3.008,191.443,0,199.174,0s14.987,3.008,20.45,8.471 c5.469,5.463,8.471,12.725,8.471,20.457s-3.014,14.994-8.471,20.45l-93.054,93.048l93.054,93.048 c5.463,5.463,8.471,12.719,8.471,20.45s-3.014,14.987-8.471,20.45C214.161,281.836,206.893,284.844,199.174,284.844z M74.121,153.588l0.199,0.193l113.498,113.498c6.073,6.073,16.646,6.073,22.719,0c3.04-3.04,4.704-7.07,4.704-11.363 c0-4.293-1.671-8.323-4.704-11.363L108.395,142.425L210.537,40.29c3.04-3.033,4.704-7.07,4.704-11.363s-1.671-8.329-4.704-11.369 c-6.073-6.067-16.645-6.067-22.719,0L74.313,131.056c-3.033,3.033-4.704,7.07-4.704,11.356 C69.603,146.622,71.203,150.574,74.121,153.588z"/></symbol><symbol id="signs" viewBox="0 0 333.244 333.244"><title>signs</title><path d="M166.985,333.244h-0.739c-11.176,0-19.293-9.293-20.18-10.354C97.055,264.188,44.773,195.781,44.773,126.583 C44.773,56.788,99.426,0,166.612,0c67.193,0,121.859,56.781,121.859,126.583c0,69.256-52.289,137.643-101.3,196.301 c0-0.006,0-0.006,0-0.006S178.772,333.244,166.985,333.244z M166.612,12.854c-60.097,0-108.986,51.016-108.986,113.729 c0,64.898,50.74,131.101,98.298,188.062c1.35,1.568,5.919,5.752,10.321,5.752h0.739c4.383,0,9.036-4.261,10.321-5.758 c47.559-56.922,98.305-123.106,98.305-188.056C275.618,63.87,226.716,12.854,166.612,12.854z M166.632,199.206 c-43.657,0-79.179-35.515-79.179-79.172s35.521-79.172,79.179-79.172c43.651,0,79.159,35.515,79.159,79.172 S210.283,199.206,166.632,199.206z M166.632,53.715c-36.569,0-66.325,29.75-66.325,66.318s29.756,66.319,66.325,66.319 c36.562,0,66.306-29.75,66.306-66.319S203.194,53.715,166.632,53.715z"/></symbol><symbol id="multimedia" viewBox="0 0 332.595 332.595"><title>multimedia</title><path d="M264.76,114.725H67.135v-14.229H264.76V114.725z M192.998,49.075H67.141v14.229h125.857V49.075z M264.76,136.911H67.135 v14.229H264.76V136.911z M332.595,128.575v7.076v149.732v7.082c0,21.266-17.295,38.561-38.561,38.561H38.561 C17.295,331.027,0,313.732,0,292.466v-7.082V135.658v-7.082c0-2.365,0.225-4.672,0.636-6.915c0.135-0.713,0.392-1.375,0.559-2.076 c0.366-1.504,0.713-3.014,1.253-4.447c0.276-0.752,0.668-1.44,0.996-2.166c0.591-1.311,1.157-2.622,1.877-3.85 c0.405-0.688,0.913-1.311,1.356-1.973c0.791-1.176,1.575-2.339,2.494-3.419c0.508-0.598,1.086-1.125,1.626-1.69 c0.983-1.028,1.973-2.044,3.066-2.963c0.598-0.495,1.234-0.919,1.857-1.375c1.163-0.855,2.32-1.69,3.573-2.416 c0.668-0.386,1.375-0.701,2.063-1.048c1.298-0.656,2.603-1.266,3.978-1.774c0.341-0.129,0.668-0.276,1.009-0.392V33.702 c0-17.719,14.415-32.134,32.134-32.134h215.569c17.725,0,32.134,14.415,32.134,32.134v58.336c0.135,0.045,0.276,0.109,0.411,0.161 c1.183,0.405,2.275,0.97,3.387,1.485c0.938,0.424,1.909,0.784,2.802,1.285c1.08,0.598,2.031,1.337,3.04,2.031 c0.842,0.585,1.735,1.093,2.526,1.742c0.951,0.771,1.78,1.677,2.648,2.532c0.726,0.713,1.504,1.356,2.172,2.127 c0.816,0.945,1.478,2.005,2.211,3.021c0.578,0.803,1.215,1.555,1.735,2.404c0.675,1.125,1.183,2.346,1.735,3.541 c0.405,0.855,0.893,1.658,1.228,2.545c0.527,1.369,0.842,2.828,1.215,4.267c0.199,0.79,0.501,1.542,0.656,2.352 C332.37,123.813,332.595,126.172,332.595,128.575z M306.181,136.731l13.541-8.278c-0.013-1.472-0.135-2.911-0.379-4.312 c-0.013-0.019-0.013-0.045-0.013-0.071c-0.251-1.433-0.63-2.821-1.118-4.158c-0.341-0.951-0.803-1.851-1.253-2.744 c-0.174-0.353-0.302-0.733-0.501-1.073c-0.643-1.144-1.382-2.23-2.198-3.258c-0.039-0.051-0.077-0.116-0.116-0.174 c-2.159-2.699-4.91-4.878-7.969-6.536v30.605H306.181z M39.197,144.559l47.051,28.773h133.524v14.229H109.513l25.238,15.431 l0.006-0.006l31.53,19.287l31.53-19.287l0.013,0.006l95.496-58.401V33.702c0-10.63-8.651-19.281-19.281-19.281H58.478 c-10.63,0-19.281,8.651-19.281,19.281V144.559z M12.867,128.46l13.477,8.239v-30.572c-0.925,0.501-1.812,1.048-2.661,1.652 c-0.238,0.167-0.463,0.341-0.688,0.521c-0.81,0.617-1.587,1.273-2.314,1.973c-0.264,0.264-0.514,0.533-0.771,0.803 c-0.643,0.675-1.26,1.375-1.825,2.114c-0.296,0.392-0.553,0.803-0.829,1.208c-0.463,0.688-0.932,1.382-1.324,2.114 c-0.302,0.559-0.54,1.157-0.803,1.742c-0.289,0.649-0.604,1.279-0.835,1.947c-0.289,0.835-0.488,1.71-0.688,2.584 c-0.116,0.482-0.276,0.945-0.366,1.44C13.001,125.606,12.873,127.014,12.867,128.46z M12.854,277.524l109.584-67.006l-109.584-67 V277.524z M319.729,292.582L197.818,218.05l-31.53,19.281l-31.53-19.281L12.867,292.582c0.006,0.938,0.174,1.825,0.276,2.744 c0.09,0.784,0.096,1.6,0.251,2.365c0.174,0.835,0.495,1.613,0.752,2.416c0.251,0.803,0.424,1.632,0.752,2.397 c0.289,0.675,0.701,1.273,1.041,1.922c0.437,0.816,0.816,1.677,1.337,2.442c0.353,0.514,0.803,0.945,1.189,1.433 c0.636,0.803,1.228,1.639,1.96,2.359c0.405,0.405,0.9,0.726,1.337,1.105c0.803,0.701,1.581,1.433,2.468,2.024 c0.495,0.334,1.06,0.559,1.575,0.861c0.919,0.527,1.8,1.093,2.783,1.504c0.816,0.341,1.697,0.533,2.545,0.79 c0.758,0.231,1.478,0.54,2.269,0.701c1.671,0.341,3.393,0.521,5.167,0.521h255.467c1.767,0,3.49-0.18,5.161-0.521 c0.79-0.161,1.504-0.469,2.275-0.701c0.855-0.257,1.735-0.45,2.545-0.79c0.977-0.411,1.857-0.977,2.776-1.504 c0.514-0.302,1.08-0.527,1.581-0.861c0.88-0.598,1.658-1.324,2.461-2.024c0.437-0.379,0.932-0.694,1.343-1.105 c0.726-0.72,1.318-1.555,1.96-2.359c0.379-0.482,0.829-0.919,1.183-1.433c0.527-0.765,0.906-1.626,1.343-2.442 c0.341-0.649,0.752-1.24,1.041-1.922c0.328-0.765,0.501-1.594,0.752-2.397c0.251-0.803,0.578-1.581,0.752-2.416 c0.148-0.765,0.161-1.581,0.251-2.365C319.549,294.407,319.716,293.52,319.729,292.582z M319.741,143.511l-109.597,67.013 l109.597,67.006V143.511z"/></symbol><symbol id="cogwheel" viewBox="0 0 333.129 333.129"><title>cogwheel</title><path d="M320.268,133.591h-28.381c-2.886-10.893-7.211-21.344-12.905-31.183l20.405-20.405c5-5.013,5-13.162-0.006-18.175 L270.923,35.37c-4.852-4.852-13.316-4.865-18.182,0l-20.264,20.264c-10.007-5.861-20.656-10.302-31.787-13.252V12.857 c0-7.089-5.765-12.854-12.854-12.854h-40.251c-7.089,0-12.854,5.765-12.854,12.854v29.525 c-11.311,2.995-22.108,7.519-32.224,13.496L81.19,34.56c-4.859-4.859-13.316-4.859-18.175,0L34.557,63.018 c-5.013,5.013-5.013,13.162,0,18.175l21.646,21.646c-5.585,9.724-9.827,20.032-12.674,30.752H12.854 C5.765,133.591,0,139.356,0,146.445v40.245c0,7.089,5.765,12.854,12.854,12.854h30.669c2.95,11.118,7.391,21.781,13.259,31.787 l-21.414,21.408c-2.429,2.429-3.766,5.662-3.76,9.1c0,3.432,1.337,6.658,3.76,9.075l28.464,28.471 c4.859,4.859,13.316,4.859,18.175,0l21.556-21.556c9.833,5.694,20.277,10.019,31.177,12.905v29.538 c0,7.089,5.765,12.854,12.854,12.854h40.251c7.089,0,12.854-5.765,12.854-12.854v-29.538c10.726-2.841,21.029-7.089,30.74-12.667 l20.502,20.502c4.865,4.852,13.31,4.846,18.175-0.006l28.458-28.458c5.013-5.006,5.013-13.169,0-18.175l-20.167-20.167 c5.977-10.116,10.495-20.919,13.496-32.231h28.374c7.089,0,12.854-5.765,12.854-12.854v-40.245 C333.122,139.356,327.351,133.591,320.268,133.591z M320.268,186.69h-38.587l-1.118,5.032 c-2.956,13.342-8.239,25.964-15.701,37.507l-2.815,4.364l27.436,27.436l-28.464,28.458l-27.668-27.674l-4.345,2.725 c-11.215,7.044-23.381,12.05-36.138,14.878l-5.032,1.118l0.013,39.744h-40.264v-39.744l-5.032-1.118 c-12.931-2.866-25.219-7.95-36.543-15.122l-4.351-2.757l-28.747,28.76l-28.464-28.471l28.657-28.644l-2.796-4.357 c-7.346-11.472-12.552-23.959-15.463-37.102l-1.118-5.032H12.854v-40.245h40.881l1.118-5.032 c2.821-12.751,7.834-24.91,14.878-36.151l2.725-4.338L43.645,72.106l28.458-28.458l28.587,28.587l4.364-2.815 c11.543-7.462,24.158-12.744,37.501-15.707l5.032-1.118V12.857h40.251v39.737l5.032,1.112c13.162,2.918,25.643,8.124,37.096,15.463 l4.357,2.796l27.507-27.507l28.464,28.464l-27.597,27.597l2.751,4.345c7.166,11.331,12.256,23.625,15.122,36.549l1.118,5.032 h38.587v40.245H320.268z M167.708,100.416c-36.479,0-66.151,29.673-66.151,66.151c0,36.472,29.673,66.139,66.151,66.139 c36.472,0,66.145-29.666,66.145-66.139C233.853,130.089,204.181,100.416,167.708,100.416z M167.708,219.852 c-29.39,0-53.298-23.908-53.298-53.285c0-29.39,23.908-53.298,53.298-53.298c29.383,0,53.291,23.908,53.291,53.298 C221,195.945,197.098,219.852,167.708,219.852z"/></symbol><symbol id="favorite" viewBox="0 0 344.202 344.202"><title>favorite</title><path d="M65.74,335.776L86.055,217.33L0,133.453l118.922-17.275L172.098,8.419l53.188,107.759l118.916,17.275l-86.042,83.883 l20.315,118.447l-106.377-55.92L65.74,335.776z M172.104,265.338l89.307,46.948l-17.05-99.43l72.238-70.425l-99.834-14.505 l-44.66-90.464l-44.641,90.464l-99.841,14.505l72.238,70.425l-17.05,99.43L172.104,265.338z"/></symbol><symbol id="add" viewBox="0 0 320.731 320.731"><title>add</title><path d="M221.212,100.101h-37.687V80.994h37.687V43.307h19.113v37.687h37.687v19.107h-37.687v37.693h-19.113V100.101z M258.815,230.026l-161.918,0.129l9.178,30.45c2.886-0.906,5.893-1.517,9.075-1.517c6.401,0,12.327,1.986,17.237,5.347h110.13 c4.91-3.361,10.842-5.347,17.243-5.347c16.858,0,30.527,13.67,30.527,30.527c0,16.858-13.67,30.527-30.527,30.527 c-16.864,0-30.527-13.67-30.527-30.527c0-4.396,0.964-8.548,2.635-12.327h-88.819c1.671,3.779,2.635,7.931,2.635,12.327 c0,16.858-13.67,30.527-30.527,30.527c-16.864,0-30.527-13.67-30.527-30.527c0-8.927,3.895-16.883,10.013-22.468l-61.537-204.2 L6.453,63.063c-0.006,0-0.019,0-0.026,0c-3.541,0-6.414-2.854-6.427-6.395c-0.013-3.554,2.847-6.44,6.401-6.459l31.466-0.135 c0.006,0,0.019,0,0.026,0c3.368,0,6.061,2.616,6.324,5.926c0.154,0.315,0.392,0.572,0.495,0.925l9.672,32.115 c0.437-0.096,0.855-0.27,1.317-0.27h85.188c0.964-48.78,40.868-88.183,89.873-88.183c49.609,0,89.969,40.354,89.969,89.963 c0,30.765-15.534,57.951-39.152,74.185l-16.17,59.602c-0.129,0.463-0.366,0.855-0.585,1.266 C263.982,228.156,261.649,230.026,258.815,230.026z M242.08,289.609c0,9.743,7.924,17.674,17.674,17.674 c9.749,0,17.674-7.931,17.674-17.674c0-9.756-7.924-17.674-17.674-17.674C250.004,271.935,242.08,279.853,242.08,289.609z M97.476,289.609c0,9.743,7.924,17.674,17.674,17.674s17.674-7.931,17.674-17.674c0-9.756-7.924-17.674-17.674-17.674 S97.476,279.853,97.476,289.609z M153.653,90.544c0,42.526,34.589,77.128,77.109,77.128s77.116-34.596,77.116-77.128 c0-42.514-34.596-77.109-77.116-77.109S153.653,48.031,153.653,90.544z M254.04,217.185l11.883-43.818 c-10.81,4.608-22.687,7.166-35.161,7.166c-45.855,0-83.722-34.512-89.211-78.909H58.176l34.853,115.689L254.04,217.185z"/></symbol><symbol id="home-1" viewBox="0 0 349.478 349.478"><title>home-1</title><path d="M304.883,343.161H195.466v-115.49h-41.453v115.49H44.596v-136.3H0l68.124-78.189V36.016h58.279v25.778l48.336-55.476 l174.739,200.543h-44.596V343.161z M208.319,330.307h83.71v-136.3h29.21l-146.5-168.126l-61.19,70.232V48.87H80.978v84.622 l-52.732,60.515h29.21v136.3h83.703v-115.49h67.16V330.307z"/></symbol><symbol id="heart" viewBox="0 0 333.701 333.701"><title>heart</title><path d="M166.828,312.996L25.932,172.101c-34.576-34.576-34.576-90.837,0-125.42C42.681,29.933,64.95,20.704,88.639,20.704 s45.965,9.229,62.713,25.977l15.476,15.476l15.476-15.476c16.748-16.748,39.024-25.977,62.713-25.977s45.952,9.229,62.707,25.977 c16.755,16.748,25.977,39.024,25.977,62.713s-9.229,45.958-25.977,62.707L166.828,312.996z M88.639,33.558 c-20.257,0-39.3,7.892-53.619,22.211c-29.563,29.57-29.563,77.675,0,107.245l131.814,131.808l131.802-131.808 c14.325-14.325,22.211-33.362,22.211-53.619s-7.892-39.3-22.211-53.626c-14.325-14.325-33.362-22.211-53.619-22.211 s-39.3,7.892-53.626,22.211l-24.563,24.563l-24.563-24.563C127.939,41.45,108.896,33.558,88.639,33.558z"/></symbol><symbol id="calendar-1" viewBox="0 0 334.202 334.202"><title>calendar-1</title><path d="M157.904,266.637h-67.43v-30.033c0-4.152,0.797-8.046,2.378-11.71c1.587-3.65,3.74-6.838,6.465-9.563 s5.906-4.872,9.537-6.427c3.625-1.568,7.519-2.346,11.665-2.346h10.064c1.395,0,2.699-0.251,3.901-0.758 c1.208-0.514,2.275-1.228,3.181-2.134c0.913-0.913,1.613-1.992,2.127-3.213c0.514-1.228,0.771-2.545,0.771-3.946 c0-1.401-0.257-2.706-0.771-3.908c-0.514-1.208-1.215-2.275-2.127-3.181s-1.973-1.62-3.181-2.127 c-1.208-0.514-2.519-0.765-3.901-0.765H94.805v-20.052h35.778c4.145,0,8.034,0.79,11.658,2.378 c3.631,1.575,6.819,3.734,9.531,6.459c2.731,2.725,4.884,5.906,6.465,9.531c1.581,3.618,2.378,7.507,2.378,11.658 s-0.797,8.053-2.378,11.697c-1.581,3.65-3.734,6.838-6.465,9.563c-2.725,2.738-5.9,4.884-9.531,6.465 c-3.625,1.594-7.526,2.384-11.658,2.384h-10.064c-1.401,0-2.699,0.251-3.908,0.765c-1.215,0.514-2.275,1.215-3.181,2.134 c-0.919,0.906-1.62,1.96-2.134,3.175c-0.514,1.208-0.771,2.513-0.771,3.914v9.994h47.379 C157.904,246.591,157.904,266.637,157.904,266.637z M225.289,264.49c3.811-1.452,7.147-3.515,10.039-6.234 c2.886-2.699,5.193-6.003,6.915-9.917c1.722-3.914,2.577-8.323,2.577-13.207c0-4.846-0.848-9.216-2.571-13.098 c-1.722-3.882-4.023-7.192-6.915-9.917s-6.228-4.82-10.039-6.266c-3.792-1.452-7.764-2.159-11.915-2.159h-18.304l1.812-17.198 h43.805v-20.045h-61.845l-5.861,57.289h40.38c1.356,0,2.712,0.244,4.094,0.733c1.369,0.488,2.609,1.208,3.702,2.159 c1.093,0.97,1.986,2.147,2.661,3.573c0.662,1.433,1.003,3.066,1.003,4.936c0,2.044-0.341,3.785-1.003,5.231 c-0.675,1.446-1.568,2.641-2.661,3.567c-1.093,0.925-2.333,1.607-3.702,2.031c-1.382,0.411-2.738,0.63-4.094,0.63h-40.38v20.045 h40.38C217.532,266.649,221.498,265.936,225.289,264.49z M333.8,65.072v51.415h-0.006v179.148 c0,21.266-17.295,38.567-38.561,38.567H38.963c-21.273,0-38.561-17.295-38.561-38.561V116.486v-12.854V65.072 c0-21.266,17.288-38.561,38.561-38.561h23.696v-5.623C62.658,9.37,72.029,0,83.546,0s20.887,9.37,20.887,20.887v5.623h125.33 v-5.623C229.763,9.37,239.133,0,250.65,0s20.887,9.37,20.887,20.887v5.623h23.702C316.506,26.511,333.8,43.805,333.8,65.072z M242.616,26.511v25.707c0,4.428,3.612,8.034,8.034,8.034c4.428,0,8.034-3.605,8.034-8.034V26.511v-5.623 c0-4.428-3.605-8.034-8.034-8.034c-4.422,0-8.034,3.605-8.034,8.034V26.511z M75.512,26.511L75.512,26.511l0.006,25.707 c0,4.428,3.612,8.034,8.034,8.034c4.428,0,8.034-3.605,8.034-8.034V20.887c0-4.428-3.599-8.034-8.034-8.034 c-4.428,0-8.034,3.605-8.034,8.034v5.623H75.512z M13.255,103.633H320.94V65.072c0-14.178-11.536-25.707-25.707-25.707h-23.702 v12.854c0,11.517-9.37,20.887-20.887,20.887c0,0,0,0-0.006,0l0,0c-11.517,0-20.887-9.37-20.887-20.887V39.364H104.426v12.854 c0,11.517-9.37,20.887-20.887,20.887s-20.887-9.37-20.887-20.887V39.364H38.963c-14.178,0-25.707,11.53-25.707,25.707V103.633z M320.94,116.486H13.255v179.148c0,14.178,11.53,25.707,25.707,25.707h256.27c14.171,0,25.707-11.53,25.707-25.707V116.486z"/></symbol><symbol id="shopping-cart" viewBox="0 0 299.915 299.915"><title>shopping-cart</title><path d="M293.494,53.616H55.701c-0.463,0-0.88,0.174-1.318,0.27l-9.672-32.115c-0.109-0.347-0.341-0.604-0.495-0.925 c-0.264-3.303-2.956-5.919-6.324-5.919c-0.006,0-0.019,0-0.026,0L6.401,15.061C2.847,15.081-0.013,17.973,0,21.52 c0.013,3.541,2.886,6.401,6.427,6.401c0.006,0,0.019,0,0.026,0l26.652-0.116l61.524,204.187 c-6.112,5.585-10.013,13.541-10.013,22.468c0,16.858,13.663,30.527,30.527,30.527c16.858,0,30.527-13.67,30.527-30.527 c0-4.396-0.964-8.548-2.635-12.32h88.819c-1.671,3.773-2.635,7.924-2.635,12.32c0,16.858,13.663,30.527,30.527,30.527 c16.858,0,30.527-13.67,30.527-30.527s-13.67-30.527-30.527-30.527c-6.401,0-12.333,1.986-17.243,5.354H132.38 c-4.91-3.368-10.836-5.354-17.237-5.354c-3.181,0-6.189,0.623-9.075,1.523l-9.178-30.45l161.918-0.129 c2.834,0,5.167-1.87,6.016-4.422c0.219-0.405,0.456-0.797,0.585-1.26l34.274-126.39c0.219-0.803,0.244-1.607,0.154-2.384 c0.006-0.135,0.077-0.244,0.077-0.373C299.921,56.495,297.042,53.616,293.494,53.616z M259.753,236.781 c9.749,0,17.674,7.924,17.674,17.674c0,9.749-7.924,17.674-17.674,17.674c-9.75,0-17.674-7.924-17.674-17.674 C242.08,244.705,250.004,236.781,259.753,236.781z M115.15,236.781c9.75,0,17.674,7.924,17.674,17.674 c0,9.749-7.924,17.674-17.674,17.674s-17.674-7.924-17.674-17.674C97.476,244.705,105.4,236.781,115.15,236.781z M254.04,182.03 l-161.011,0.129L58.176,66.476h227.201L254.04,182.03z"/></symbol><symbol id="square" viewBox="0 0 128 128"><title>square</title><path d="M120,16H88v8h32v96H8V24h32v-8H8c-4.422,0-8,3.578-8,8v96c0,4.422,3.578,8,8,8h112c4.418,0,8-3.578,8-8V24 C128,19.578,124.418,16,120,16z M16,112h96V88H16V112z M24,96h80v8H24V96z M32,48c0,4.273,1.664,8.289,4.688,11.313l16,16 C55.711,78.336,59.727,80,64,80s8.289-1.664,11.313-4.688l16-16C94.336,56.289,96,52.273,96,48s-1.664-8.289-4.688-11.313 c-3.117-3.117-7.215-4.68-11.313-4.68V16c0-8.82-7.176-16-16-16c-8.82,0-16,7.18-16,16v16.008c-4.098,0-8.195,1.563-11.313,4.68 C33.664,39.711,32,43.727,32,48z M42.344,42.344c3.125-3.125,8.188-3.125,11.313,0L56,44.688V16c0-4.422,3.582-8,8-8s8,3.578,8,8 v28.688l2.344-2.344c3.125-3.125,8.188-3.125,11.313,0C87.219,43.906,88,45.953,88,48s-0.781,4.094-2.344,5.656l-16,16 c-3.125,3.125-8.188,3.125-11.313,0l-16-16C40.781,52.094,40,50.047,40,48S40.781,43.906,42.344,42.344z"/></symbol><symbol id="home" viewBox="0 0 58.365 58.365"><title>home</title><path d="M57.863,26.632l-8.681-8.061V5.365h-10v3.921L29.182,0L0.502,26.632c-0.404,0.376-0.428,1.009-0.052,1.414 c0.375,0.404,1.008,0.427,1.414,0.052l3.319-3.082v33.349h16h16h16V25.015l3.319,3.082c0.192,0.179,0.437,0.267,0.681,0.267 c0.269,0,0.536-0.107,0.732-0.319C58.291,27.641,58.267,27.008,57.863,26.632z M41.182,7.365h6v9.349l-6-5.571V7.365z M23.182,56.365V35.302c0-0.517,0.42-0.937,0.937-0.937h10.126c0.517,0,0.937,0.42,0.937,0.937v21.063H23.182z M51.182,56.365h-14 V35.302c0-1.62-1.317-2.937-2.937-2.937H24.119c-1.62,0-2.937,1.317-2.937,2.937v21.063h-14V23.158l22-20.429l14.28,13.26 l5.72,5.311v0l2,1.857V56.365z"/></symbol><symbol id="calendar" viewBox="0 0 58 58"><title>calendar</title><path d="M42.899,4.5c-0.465-2.279-2.484-4-4.899-4c-0.553,0-1,0.447-1,1s0.447,1,1,1c1.654,0,3,1.346,3,3s-1.346,3-3,3 c-0.553,0-1,0.447-1,1s0.447,1,1,1c2.414,0,4.434-1.721,4.899-4H56v9H2v-9h14h3c0.553,0,1-0.447,1-1s-0.447-1-1-1h-1.816 c0.414-1.162,1.514-2,2.816-2c1.654,0,3,1.346,3,3s-1.346,3-3,3c-0.553,0-1,0.447-1,1s0.447,1,1,1c2.757,0,5-2.243,5-5 s-2.243-5-5-5c-2.414,0-4.434,1.721-4.899,4H0v13v40h58v-40v-13H42.899z M56,55.5H2v-38h54V55.5z"/><path d="M26,2.5c1.654,0,3,1.346,3,3s-1.346,3-3,3c-0.553,0-1,0.447-1,1s0.447,1,1,1c2.757,0,5-2.243,5-5s-2.243-5-5-5 c-0.553,0-1,0.447-1,1S25.447,2.5,26,2.5z"/><path d="M32,2.5c1.654,0,3,1.346,3,3s-1.346,3-3,3c-0.553,0-1,0.447-1,1s0.447,1,1,1c2.757,0,5-2.243,5-5s-2.243-5-5-5 c-0.553,0-1,0.447-1,1S31.447,2.5,32,2.5z"/><circle cx="22" cy="24.5" r="1"/><circle cx="29" cy="24.5" r="1"/><circle cx="36" cy="24.5" r="1"/><circle cx="43" cy="24.5" r="1"/><circle cx="50" cy="24.5" r="1"/><circle cx="8" cy="32.5" r="1"/><circle cx="15" cy="32.5" r="1"/><circle cx="22" cy="32.5" r="1"/><circle cx="29" cy="32.5" r="1"/><circle cx="36" cy="32.5" r="1"/><circle cx="43" cy="32.5" r="1"/><circle cx="50" cy="32.5" r="1"/><circle cx="8" cy="39.5" r="1"/><circle cx="15" cy="39.5" r="1"/><circle cx="22" cy="39.5" r="1"/><circle cx="29" cy="39.5" r="1"/><circle cx="36" cy="39.5" r="1"/><circle cx="43" cy="39.5" r="1"/><circle cx="50" cy="39.5" r="1"/><circle cx="8" cy="47.5" r="1"/><circle cx="15" cy="47.5" r="1"/><circle cx="22" cy="47.5" r="1"/><circle cx="29" cy="47.5" r="1"/><circle cx="36" cy="47.5" r="1"/></symbol><symbol id="map-location" viewBox="0 0 55.017 55.017"><title>map-location</title><path d="M51.688,23.013H40.789c-0.553,0-1,0.447-1,1s0.447,1,1,1h9.102l2.899,27H2.268l3.403-27h9.118c0.553,0,1-0.447,1-1 s-0.447-1-1-1H3.907L0,54.013h55.017L51.688,23.013z"/><path d="M26.654,38.968c-0.147,0.087-0.304,0.164-0.445,0.255c-0.22,0.142-0.435,0.291-0.646,0.445 c-0.445,0.327-0.541,0.953-0.215,1.398c0.196,0.267,0.5,0.408,0.808,0.408c0.205,0,0.412-0.063,0.591-0.193 c0.178-0.131,0.359-0.257,0.548-0.379c0.321-0.208,0.662-0.403,1.014-0.581c0.468-0.237,0.658-0.791,0.462-1.269 c0.008-0.008,0.018-0.014,0.025-0.022c1.809-1.916,7.905-9.096,10.429-21.058c0.512-2.426,0.627-4.754,0.342-6.919 c-0.86-6.575-4.945-10.051-11.813-10.051c-6.866,0-10.951,3.476-11.813,10.051c-0.284,2.166-0.169,4.494,0.343,6.919 C18.783,29.818,24.783,36.97,26.654,38.968z M17.924,11.314c0.733-5.592,3.949-8.311,9.831-8.311c5.883,0,9.098,2.719,9.83,8.311 c0.255,1.94,0.148,4.043-0.316,6.247C35,28.314,29.59,35.137,27.755,37.207c-1.837-2.072-7.246-8.898-9.514-19.646 C17.776,15.357,17.67,13.255,17.924,11.314z"/><path d="M27.755,19.925c4.051,0,7.346-3.295,7.346-7.346s-3.295-7.346-7.346-7.346s-7.346,3.295-7.346,7.346 S23.704,19.925,27.755,19.925z M27.755,7.234c2.947,0,5.346,2.398,5.346,5.346s-2.398,5.346-5.346,5.346s-5.346-2.398-5.346-5.346 S24.808,7.234,27.755,7.234z"/><path d="M31.428,37.17c-0.54,0.114-0.884,0.646-0.769,1.187c0.1,0.47,0.515,0.791,0.977,0.791c0.069,0,0.14-0.007,0.21-0.022 c0.586-0.124,1.221-0.229,1.886-0.313c0.548-0.067,0.938-0.567,0.869-1.115c-0.068-0.549-0.563-0.945-1.115-0.869 C32.763,36.918,32.07,37.033,31.428,37.17z"/><path d="M36.599,37.576c0.022,0.537,0.466,0.957,0.998,0.957c0.015,0,0.029,0,0.044-0.001l2.001-0.083 c0.551-0.025,0.979-0.493,0.953-1.044c-0.025-0.553-0.539-0.984-1.044-0.954l-1.996,0.083 C37.003,36.557,36.575,37.023,36.599,37.576z"/><path d="M22.433,42.177c-0.514,0.388-1.045,0.761-1.58,1.107c-0.463,0.301-0.595,0.92-0.294,1.384 c0.191,0.295,0.513,0.455,0.84,0.455c0.187,0,0.375-0.052,0.544-0.161c0.573-0.372,1.144-0.772,1.695-1.188 c0.44-0.333,0.528-0.96,0.196-1.401C23.501,41.936,22.876,41.844,22.433,42.177z"/><path d="M44.72,35.583c-0.338,0.237-0.777,0.409-1.346,0.526c-0.541,0.111-0.889,0.641-0.777,1.182 c0.098,0.473,0.514,0.798,0.979,0.798c0.067,0,0.135-0.007,0.203-0.021c0.842-0.174,1.526-0.452,2.096-0.853l0.134-0.098 c0.44-0.334,0.527-0.961,0.194-1.401c-0.334-0.44-0.96-0.526-1.401-0.194L44.72,35.583z"/><path d="M8.86,43.402c0.145-0.533-0.171-1.082-0.704-1.226c-0.529-0.149-1.082,0.169-1.226,0.704 c-0.126,0.464-0.201,0.938-0.225,1.405C6.7,44.4,6.697,44.516,6.697,44.638c0.001,0.196,0.01,0.392,0.029,0.587 c0.053,0.515,0.487,0.898,0.994,0.898c0.033,0,0.067-0.002,0.103-0.005c0.549-0.057,0.949-0.547,0.894-1.097 c-0.014-0.131-0.019-0.264-0.02-0.39c0-0.083,0.003-0.166,0.007-0.248C8.72,44.059,8.772,43.728,8.86,43.402z"/><path d="M44.698,27.81c-0.794-0.106-1.604-0.041-2.386,0.181c-0.532,0.149-0.841,0.702-0.69,1.233 c0.124,0.441,0.525,0.729,0.961,0.729c0.091,0,0.182-0.012,0.272-0.038c0.52-0.146,1.055-0.192,1.575-0.122 c0.562,0.07,1.052-0.311,1.125-0.857C45.629,28.387,45.245,27.884,44.698,27.81z"/><path d="M46.688,32.764c-0.163,0.527,0.133,1.088,0.66,1.25c0.099,0.031,0.197,0.045,0.295,0.045c0.428,0,0.823-0.275,0.955-0.705 c0.099-0.318,0.16-0.641,0.183-0.963c0.005-0.083,0.008-0.167,0.008-0.25c0-0.468-0.086-0.937-0.255-1.392 c-0.192-0.519-0.771-0.781-1.285-0.59c-0.519,0.192-0.782,0.768-0.59,1.285c0.086,0.232,0.13,0.467,0.13,0.696l-0.003,0.117 C46.774,32.423,46.742,32.589,46.688,32.764z"/><path d="M17.481,45.164c-0.586,0.275-1.183,0.53-1.774,0.759c-0.515,0.198-0.771,0.777-0.572,1.293 c0.153,0.396,0.531,0.64,0.933,0.64c0.12,0,0.242-0.021,0.36-0.067c0.635-0.245,1.275-0.519,1.903-0.813 c0.5-0.234,0.715-0.83,0.48-1.33C18.578,45.145,17.984,44.928,17.481,45.164z"/><path d="M10.201,41.001c0.161,0,0.325-0.039,0.478-0.122c0.288-0.157,0.595-0.255,0.911-0.289c0.135-0.016,0.273-0.016,0.406,0.002 c0.563,0.073,1.05-0.313,1.122-0.86c0.072-0.548-0.313-1.05-0.86-1.122c-0.298-0.039-0.601-0.041-0.891-0.008 c-0.574,0.063-1.128,0.239-1.646,0.521c-0.485,0.265-0.664,0.871-0.399,1.356C9.504,40.813,9.847,41.001,10.201,41.001z"/><path d="M9.993,48.842c0.216,0.056,0.436,0.098,0.654,0.124c0.256,0.031,0.512,0.047,0.769,0.047c0.313,0,0.627-0.022,0.94-0.062 c0.548-0.069,0.937-0.569,0.867-1.117s-0.567-0.934-1.117-0.867c-0.404,0.052-0.812,0.064-1.216,0.015 c-0.132-0.017-0.264-0.042-0.394-0.075c-0.535-0.143-1.08,0.181-1.22,0.716C9.139,48.158,9.459,48.704,9.993,48.842z"/></symbol></svg>